<?xml version="1.0" encoding="UTF-8"?>
<svg xmlns="http://www.w3.org/2000/svg" xmlns:xlink="http://www.w3.org/1999/xlink" width="300.866592" height="309.532515" viewBox="-150.433296 -292.462188 300.866592 309.532515">
<defs>
<style type="text/css">
.l0d0 {fill:darkorange;stroke:chocolate;}
</style>
</defs>
<rect x="-150.433296" y="-292.462188" width="300.866592" height="309.532515" fill="none" stroke="none"/>
<g id="ringres" transform="scale(1 -1)">
<polygon id="0000023F34ED2880" class="l0d0" points="136.363636,142.031563 136.352955,143.738287 136.320914,145.444744 136.267517,147.150666 136.192773,148.855787 136.096693,150.559838 135.979293,152.262553 135.840591,153.963666 135.680609,155.662909 135.499372,157.360017 135.296908,159.054723 135.073249,160.746763 134.82843,162.435871 134.562489,164.121783 134.275468,165.804234 133.967413,167.482961 133.63837,169.1577 133.288392,170.828191 132.917534,172.49417 132.525854,174.155377 132.113412,175.811551 131.680274,177.462434 131.226508,179.107766 130.752185,180.74729 130.257378,182.380749 129.742165,184.007887 129.206628,185.62845 128.65085,187.242182 128.074918,188.848832 127.478922,190.448148 126.862956,192.039879 126.227116,193.623776 125.571502,195.199591 124.896216,196.767076 124.201365,198.325988 123.487057,199.87608 122.753403,201.41711 122.00052,202.948838 121.228525,204.471022 120.437538,205.983425 119.627685,207.485809 118.79909,208.97794 117.951886,210.459583 117.086203,211.930507 116.202178,213.39048 115.29995,214.839275 114.379659,216.276663 113.44145,217.702421 112.485469,219.116325 111.511867,220.518153 110.520796,221.907685 109.512411,223.284705 108.486871,224.648995 107.444335,226.000343 106.384968,227.338537 105.308935,228.663367 104.216404,229.974626 103.107548,231.272108 101.982539,232.55561 100.841554,233.82493 99.684771,235.079871 98.512372,236.320235 97.324541,237.545829 96.121463,238.756459 94.903328,239.951937 93.670325,241.132075 92.422648,242.296688 91.160492,243.445595 89.884056,244.578614 88.593539,245.695569 87.289143,246.796284 85.971073,247.880587 84.639535,248.948308 83.294738,249.99928 81.936892,251.033338 80.56621,252.050321 79.182907,253.050068 77.787199,254.032424 76.379306,254.997234 74.959448,255.944347 73.527846,256.873616 72.084726,257.784893 70.630314,258.678037 69.164837,259.552908 67.688524,260.409369 66.201608,261.247285 64.704322,262.066525 63.196898,262.86696 61.679575,263.648467 60.152589,264.410921 58.61618,265.154204 57.070589,265.878199 55.516057,266.582792 53.952828,267.267874 52.381147,267.933337 50.80126,268.579077 49.213415,269.204992 47.61786,269.810985 46.014846,270.39696 44.404623,270.962826 42.787444,271.508495 41.163562,272.03388 39.533231,272.538899 37.896708,273.023474 36.254247,273.487528 34.606108,273.930989 32.952547,274.353787 31.293823,274.755856 29.630198,275.137132 27.96193,275.497557 26.289283,275.837074 24.612517,276.15563 22.931895,276.453174 21.247681,276.72966 19.560138,276.985045 17.869531,277.219288 16.176124,277.432354 14.480184,277.624208 12.781975,277.794821 11.081764,277.944166 9.379817,278.07222 7.6764,278.178961 5.971781,278.264375 4.266226,278.328447 2.560003,278.371167 0.853379,278.392529 -0.853379,278.392529 -2.560003,278.371167 -4.266226,278.328447 -5.971781,278.264375 -7.6764,278.178961 -9.379817,278.07222 -11.081764,277.944166 -12.781975,277.794821 -14.480184,277.624208 -16.176124,277.432354 -17.869531,277.219288 -19.560138,276.985045 -21.247681,276.72966 -22.931895,276.453174 -24.612517,276.15563 -26.289283,275.837074 -27.96193,275.497557 -29.630198,275.137132 -31.293823,274.755856 -32.952547,274.353787 -34.606108,273.930989 -36.254247,273.487528 -37.896708,273.023474 -39.533231,272.538899 -41.163562,272.03388 -42.787444,271.508495 -44.404623,270.962826 -46.014846,270.39696 -47.61786,269.810985 -49.213415,269.204992 -50.80126,268.579077 -52.381147,267.933337 -53.952828,267.267874 -55.516057,266.582792 -57.070589,265.878199 -58.61618,265.154204 -60.152589,264.410921 -61.679575,263.648467 -63.196898,262.86696 -64.704322,262.066525 -66.201608,261.247285 -67.688524,260.409369 -69.164837,259.552908 -70.630314,258.678037 -72.084726,257.784893 -73.527846,256.873616 -74.959448,255.944347 -76.379306,254.997234 -77.787199,254.032424 -79.182907,253.050068 -80.56621,252.050321 -81.936892,251.033338 -83.294738,249.99928 -84.639535,248.948308 -85.971073,247.880587 -87.289143,246.796284 -88.593539,245.695569 -89.884056,244.578614 -91.160492,243.445595 -92.422648,242.296688 -93.670325,241.132075 -94.903328,239.951937 -96.121463,238.756459 -97.324541,237.545829 -98.512372,236.320235 -99.684771,235.079871 -100.841554,233.82493 -101.982539,232.55561 -103.107548,231.272108 -104.216404,229.974626 -105.308935,228.663367 -106.384968,227.338537 -107.444335,226.000343 -108.486871,224.648995 -109.512411,223.284705 -110.520796,221.907685 -111.511867,220.518153 -112.485469,219.116325 -113.44145,217.702421 -114.379659,216.276663 -115.29995,214.839275 -116.202178,213.39048 -117.086203,211.930507 -117.951886,210.459583 -118.79909,208.97794 -119.627685,207.485809 -120.437538,205.983425 -121.228525,204.471022 -122.00052,202.948838 -122.753403,201.41711 -123.487057,199.87608 -124.201365,198.325988 -124.896216,196.767076 -125.571502,195.199591 -126.227116,193.623776 -126.862956,192.039879 -127.478922,190.448148 -128.074918,188.848832 -128.65085,187.242182 -129.206628,185.62845 -129.742165,184.007887 -130.257378,182.380749 -130.752185,180.74729 -131.226508,179.107766 -131.680274,177.462434 -132.113412,175.811551 -132.525854,174.155377 -132.917534,172.49417 -133.288392,170.828191 -133.63837,169.1577 -133.967413,167.482961 -134.275468,165.804234 -134.562489,164.121783 -134.82843,162.435871 -135.073249,160.746763 -135.296908,159.054723 -135.499372,157.360017 -135.680609,155.662909 -135.840591,153.963666 -135.979293,152.262553 -136.096693,150.559838 -136.192773,148.855787 -136.267517,147.150666 -136.320914,145.444744 -136.352955,143.738287 -136.363636,142.031563 -136.352955,140.324838 -136.320914,138.618381 -136.267517,136.912459 -136.192773,135.207339 -136.096693,133.503287 -135.979293,131.800572 -135.840591,130.099459 -135.680609,128.400216 -135.499372,126.703108 -135.296908,125.008402 -135.073249,123.316362 -134.82843,121.627254 -134.562489,119.941342 -134.275468,118.258891 -133.967413,116.580165 -133.63837,114.905425 -133.288392,113.234935 -132.917534,111.568956 -132.525854,109.907749 -132.113412,108.251574 -131.680274,106.600691 -131.226508,104.955359 -130.752185,103.315835 -130.257378,101.682376 -129.742165,100.055238 -129.206628,98.434676 -128.65085,96.820943 -128.074918,95.214293 -127.478922,93.614977 -126.862956,92.023246 -126.227116,90.439349 -125.571502,88.863534 -124.896216,87.296049 -124.201365,85.737138 -123.487057,84.187045 -122.753403,82.646015 -122.00052,81.114287 -121.228525,79.592103 -120.437538,78.0797 -119.627685,76.577316 -118.79909,75.085185 -117.951886,73.603542 -117.086203,72.132619 -116.202178,70.672645 -115.29995,69.223851 -114.379659,67.786462 -113.44145,66.360704 -112.485469,64.9468 -111.511867,63.544972 -110.520796,62.15544 -109.512411,60.778421 -108.486871,59.41413 -107.444335,58.062782 -106.384968,56.724588 -105.308935,55.399758 -104.216404,54.088499 -103.107548,52.791017 -101.982539,51.507516 -100.841554,50.238195 -99.684771,48.983254 -98.512372,47.74289 -97.324541,46.517297 -96.121463,45.306666 -94.903328,44.111188 -93.670325,42.93105 -92.422648,41.766437 -91.160492,40.61753 -89.884056,39.484511 -88.593539,38.367557 -87.289143,37.266841 -85.971073,36.182538 -84.639535,35.114817 -83.294738,34.063845 -81.936892,33.029787 -80.56621,32.012804 -79.182907,31.013057 -77.787199,30.030701 -76.379306,29.065891 -74.959448,28.118778 -73.527846,27.189509 -72.084726,26.278232 -70.630314,25.385088 -69.164837,24.510217 -67.688524,23.653756 -66.201608,22.815841 -64.704322,21.996601 -63.196898,21.196165 -61.679575,20.414659 -60.152589,19.652204 -58.61618,18.908922 -57.070589,18.184927 -55.516057,17.480333 -53.952828,16.795251 -52.381147,16.129788 -50.80126,15.484048 -49.213415,14.858133 -47.61786,14.25214 -46.014846,13.666165 -44.404623,13.100299 -42.787444,12.55463 -41.163562,12.029245 -39.533231,11.524226 -37.896708,11.039651 -36.254247,10.575597 -34.606108,10.132136 -32.952547,9.709338 -31.293823,9.30727 -29.630198,8.925993 -27.96193,8.565568 -26.289283,8.226051 -24.612517,7.907496 -22.931895,7.609951 -21.247681,7.333465 -19.560138,7.07808 -17.869531,6.843837 -16.176124,6.630771 -14.480184,6.438917 -12.781975,6.268304 -11.081764,6.118959 -9.379817,5.990906 -7.6764,5.884164 -5.971781,5.79875 -4.266226,5.734678 -2.560003,5.691958 -0.853379,5.670597 0.853379,5.670597 2.560003,5.691958 4.266226,5.734678 5.971781,5.79875 7.6764,5.884164 9.379817,5.990906 11.081764,6.118959 12.781975,6.268304 14.480184,6.438917 16.176124,6.630771 17.869531,6.843837 19.560138,7.07808 21.247681,7.333465 22.931895,7.609951 24.612517,7.907496 26.289283,8.226051 27.96193,8.565568 29.630198,8.925993 31.293823,9.30727 32.952547,9.709338 34.606108,10.132136 36.254247,10.575597 37.896708,11.039651 39.533231,11.524226 41.163562,12.029245 42.787444,12.55463 44.404623,13.100299 46.014846,13.666165 47.61786,14.25214 49.213415,14.858133 50.80126,15.484048 52.381147,16.129788 53.952828,16.795251 55.516057,17.480333 57.070589,18.184927 58.61618,18.908922 60.152589,19.652204 61.679575,20.414659 63.196898,21.196165 64.704322,21.996601 66.201608,22.815841 67.688524,23.653756 69.164837,24.510217 70.630314,25.385088 72.084726,26.278232 73.527846,27.189509 74.959448,28.118778 76.379306,29.065891 77.787199,30.030701 79.182907,31.013057 80.56621,32.012804 81.936892,33.029787 83.294738,34.063845 84.639535,35.114817 85.971073,36.182538 87.289143,37.266841 88.593539,38.367557 89.884056,39.484511 91.160492,40.61753 92.422648,41.766437 93.670325,42.93105 94.903328,44.111188 96.121463,45.306666 97.324541,46.517297 98.512372,47.74289 99.684771,48.983254 100.841554,50.238195 101.982539,51.507516 103.107548,52.791017 104.216404,54.088499 105.308935,55.399758 106.384968,56.724588 107.444335,58.062782 108.486871,59.41413 109.512411,60.778421 110.520796,62.15544 111.511867,63.544972 112.485469,64.9468 113.44145,66.360704 114.379659,67.786462 115.29995,69.223851 116.202178,70.672645 117.086203,72.132619 117.951886,73.603542 118.79909,75.085185 119.627685,76.577316 120.437538,78.0797 121.228525,79.592103 122.00052,81.114287 122.753403,82.646015 123.487057,84.187045 124.201365,85.737138 124.896216,87.296049 125.571502,88.863534 126.227116,90.439349 126.862956,92.023246 127.478922,93.614977 128.074918,95.214293 128.65085,96.820943 129.206628,98.434676 129.742165,100.055238 130.257378,101.682376 130.752185,103.315835 131.226508,104.955359 131.680274,106.600691 132.113412,108.251574 132.525854,109.907749 132.917534,111.568956 133.288392,113.234935 133.63837,114.905425 133.967413,116.580165 134.275468,118.258891 134.562489,119.941342 134.82843,121.627254 135.073249,123.316362 135.296908,125.008402 135.499372,126.703108 135.680609,128.400216 135.840591,130.099459 135.979293,131.800572 136.096693,133.503287 136.192773,135.207339 136.267517,136.912459 136.320914,138.618381 136.352955,140.324838 136.363636,142.031563 130.362303,142.031563 130.351629,140.363399 130.31961,138.695509 130.26625,137.028165 130.191559,135.361641 130.095549,133.696209 129.978235,132.032142 129.839637,130.369712 129.679776,128.709191 129.498681,127.050853 129.296379,125.394967 129.072905,123.741806 128.828295,122.09164 128.562588,120.444739 128.275829,118.801373 127.968064,117.161811 127.639344,115.526322 127.289723,113.895173 126.919257,112.268631 126.528008,110.646963 126.11604,109.030435 125.68342,107.41931 125.230218,105.813854 124.75651,104.214328 124.262372,102.620995 123.747886,101.034115 123.213136,99.453949 122.658209,97.880755 122.083196,96.314791 121.488192,94.756314 120.873294,93.205578 120.238602,91.662837 119.584221,90.128344 118.910257,88.602351 118.216822,87.085107 117.504028,85.57686 116.771992,84.077859 116.020835,82.588347 115.250678,81.108569 114.461649,79.638768 113.653877,78.179184 112.827493,76.730056 111.982633,75.291621 111.119436,73.864115 110.238043,72.447772 109.338597,71.042823 108.421247,69.649499 107.486143,68.268028 106.533438,66.898636 105.563287,65.541547 104.57585,64.196984 103.571288,62.865166 102.549766,61.546312 101.511451,60.240638 100.456513,58.948358 99.385126,57.669683 98.297463,56.404822 97.193704,55.153983 96.074029,53.91737 94.938622,52.695187 93.787668,51.487632 92.621356,50.294905 91.439877,49.117199 90.243424,47.954709 89.032194,46.807624 87.806384,45.676133 86.566196,44.56042 85.311832,43.460668 84.043498,42.377057 82.761402,41.309766 81.465753,40.258968 80.156764,39.224835 78.834649,38.207538 77.499624,37.207242 76.151909,36.224111 74.791723,35.258307 73.41929,34.309987 72.034835,33.379307 70.638583,32.46642 69.230764,31.571474 67.811608,30.694616 66.381348,29.83599 64.940218,28.995736 63.488454,28.173993 62.026293,27.370894 60.553975,26.586571 59.071741,25.821153 57.579834,25.074764 56.078498,24.347528 54.567979,23.639563 53.048524,22.950984 51.520382,22.281906 49.983804,21.632438 48.439041,21.002685 46.886345,20.392751 45.325972,19.802735 43.758177,19.232735 42.183216,18.682844 40.601347,18.153152 39.01283,17.643745 37.417924,17.154707 35.816891,16.686119 34.209992,16.238056 32.597492,15.810592 30.979654,15.403797 29.356743,15.017738 27.729024,14.652478 26.096765,14.308077 24.460232,13.984591 22.819694,13.682073 21.175419,13.400572 19.527676,13.140136 17.876736,12.900806 16.222869,12.682622 14.566344,12.485619 12.907435,12.309829 11.246412,12.155282 9.583547,12.022003 7.919113,11.910013 6.253382,11.819331 4.586627,11.749972 2.919121,11.701947 1.251137,11.675264 -0.417051,11.669927 -2.085172,11.685937 -3.752951,11.723292 -5.420116,11.781986 -7.086393,11.862008 -8.751509,11.963346 -10.415193,12.085983 -12.077171,12.229899 -13.737171,12.39507 -15.394922,12.58147 -17.050151,12.789068 -18.702589,13.01783 -20.351964,13.267719 -21.998007,13.538692 -23.640447,13.830707 -25.279016,14.143716 -26.913445,14.477666 -28.543468,14.832504 -30.168816,15.208171 -31.789224,15.604606 -33.404426,16.021744 -35.014158,16.459517 -36.618157,16.917852 -38.216159,17.396675 -39.807903,17.895908 -41.393128,18.415468 -42.971576,18.955271 -44.542986,19.515227 -46.107102,20.095247 -47.663669,20.695234 -49.21243,21.31509 -50.753132,21.954714 -52.285523,22.614001 -53.809353,23.292843 -55.324371,23.991129 -56.830329,24.708744 -58.326981,25.445572 -59.814082,26.201491 -61.291388,26.976377 -62.758658,27.770104 -64.21565,28.582542 -65.662127,29.413558 -67.097852,30.263015 -68.522589,31.130775 -69.936105,32.016695 -71.338169,32.92063 -72.728551,33.842433 -74.107024,34.781952 -75.473361,35.739033 -76.827339,36.713521 -78.168737,37.705254 -79.497334,38.714072 -80.812913,39.739808 -82.115258,40.782294 -83.404157,41.841361 -84.679398,42.916834 -85.940773,44.008537 -87.188075,45.116292 -88.421099,46.239918 -89.639644,47.379229 -90.84351,48.53404 -92.0325,49.704162 -93.20642,50.889403 -94.365076,52.089568 -95.50828,53.304462 -96.635845,54.533885 -97.747584,55.777637 -98.843318,57.035512 -99.922865,58.307306 -100.986049,59.592811 -102.032697,60.891815 -103.062637,62.204105 -104.075699,63.529468 -105.071719,64.867686 -106.050533,66.21854 -107.011981,67.581808 -107.955905,68.957268 -108.882151,70.344694 -109.790567,71.743859 -110.681005,73.154534 -111.553318,74.576487 -112.407364,76.009487 -113.243003,77.453298 -114.060098,78.907684 -114.858515,80.372407 -115.638124,81.847226 -116.398796,83.331901 -117.140408,84.826188 -117.862837,86.329843 -118.565967,87.84262 -119.24968,89.364269 -119.913866,90.894544 -120.558416,92.433192 -121.183224,93.979962 -121.788187,95.534601 -122.373207,97.096854 -122.938189,98.666465 -123.483038,100.243177 -124.007667,101.826732 -124.51199,103.416871 -124.995923,105.013333 -125.459387,106.615857 -125.902307,108.22418 -126.32461,109.83804 -126.726227,111.457171 -127.107092,113.081309 -127.467143,114.710188 -127.80632,116.343541 -128.124569,117.9811 -128.421837,119.622598 -128.698076,121.267765 -128.953239,122.916332 -129.187286,124.568029 -129.400179,126.222587 -129.591881,127.879733 -129.762363,129.539196 -129.911595,131.200705 -130.039554,132.863987 -130.146218,134.528771 -130.231571,136.194784 -130.295597,137.861752 -130.338287,139.529403 -130.359634,141.197464 -130.359634,142.865661 -130.338287,144.533722 -130.295597,146.201373 -130.231571,147.868341 -130.146218,149.534354 -130.039554,151.199138 -129.911595,152.86242 -129.762363,154.523929 -129.591881,156.183393 -129.400179,157.840539 -129.187286,159.495096 -128.953239,161.146793 -128.698076,162.79536 -128.421837,164.440528 -128.124569,166.082025 -127.80632,167.719584 -127.467143,169.352937 -127.107092,170.981816 -126.726227,172.605954 -126.32461,174.225085 -125.902307,175.838945 -125.459387,177.447268 -124.995923,179.049792 -124.51199,180.646254 -124.007667,182.236393 -123.483038,183.819948 -122.938189,185.396661 -122.373207,186.966272 -121.788187,188.528524 -121.183224,190.083163 -120.558416,191.629933 -119.913866,193.168581 -119.24968,194.698856 -118.565967,196.220506 -117.862837,197.733282 -117.140408,199.236937 -116.398796,200.731224 -115.638124,202.215899 -114.858515,203.690719 -114.060098,205.155441 -113.243003,206.609827 -112.407364,208.053638 -111.553318,209.486638 -110.681005,210.908592 -109.790567,212.319266 -108.882151,213.718431 -107.955905,215.105857 -107.011981,216.481317 -106.050533,217.844585 -105.071719,219.195439 -104.075699,220.533657 -103.062637,221.85902 -102.032697,223.171311 -100.986049,224.470314 -99.922865,225.755819 -98.843318,227.027613 -97.747584,228.285488 -96.635845,229.52924 -95.50828,230.758663 -94.365076,231.973557 -93.20642,233.173722 -92.0325,234.358963 -90.84351,235.529085 -89.639644,236.683896 -88.421099,237.823207 -87.188075,238.946833 -85.940773,240.054588 -84.679398,241.146291 -83.404157,242.221764 -82.115258,243.280831 -80.812913,244.323318 -79.497334,245.349054 -78.168737,246.357871 -76.827339,247.349604 -75.473361,248.324092 -74.107024,249.281173 -72.728551,250.220692 -71.338169,251.142495 -69.936105,252.046431 -68.522589,252.932351 -67.097852,253.80011 -65.662127,254.649567 -64.21565,255.480583 -62.758658,256.293021 -61.291388,257.086748 -59.814082,257.861634 -58.326981,258.617553 -56.830329,259.354381 -55.324371,260.071996 -53.809353,260.770282 -52.285523,261.449124 -50.753132,262.108411 -49.21243,262.748035 -47.663669,263.367891 -46.107102,263.967878 -44.542986,264.547898 -42.971576,265.107855 -41.393128,265.647657 -39.807903,266.167218 -38.216159,266.66645 -36.618157,267.145273 -35.014158,267.603608 -33.404426,268.041381 -31.789224,268.458519 -30.168816,268.854954 -28.543468,269.230621 -26.913445,269.585459 -25.279016,269.919409 -23.640447,270.232418 -21.998007,270.524433 -20.351964,270.795407 -18.702589,271.045295 -17.050151,271.274057 -15.394922,271.481655 -13.737171,271.668055 -12.077171,271.833226 -10.415193,271.977142 -8.751509,272.09978 -7.086393,272.201117 -5.420116,272.28114 -3.752951,272.339833 -2.085172,272.377188 -0.417051,272.393198 1.251137,272.387861 2.919121,272.361178 4.586627,272.313153 6.253382,272.243794 7.919113,272.153112 9.583547,272.041122 11.246412,271.907843 12.907435,271.753296 14.566344,271.577506 16.222869,271.380503 17.876736,271.162319 19.527676,270.922989 21.175419,270.662553 22.819694,270.381052 24.460232,270.078535 26.096765,269.755048 27.729024,269.410647 29.356743,269.045387 30.979654,268.659328 32.597492,268.252533 34.209992,267.82507 35.816891,267.377007 37.417924,266.908418 39.01283,266.41938 40.601347,265.909973 42.183216,265.380281 43.758177,264.83039 45.325972,264.26039 46.886345,263.670375 48.439041,263.060441 49.983804,262.430688 51.520382,261.781219 53.048524,261.112141 54.567979,260.423563 56.078498,259.715597 57.579834,258.988361 59.071741,258.241973 60.553975,257.476554 62.026293,256.692231 63.488454,255.889132 64.940218,255.067389 66.381348,254.227135 67.811608,253.368509 69.230764,252.491652 70.638583,251.596706 72.034835,250.683818 73.41929,249.753138 74.791723,248.804818 76.151909,247.839014 77.499624,246.855883 78.834649,245.855587 80.156764,244.83829 81.465753,243.804157 82.761402,242.753359 84.043498,241.686068 85.311832,240.602457 86.566196,239.502705 87.806384,238.386992 89.032194,237.255501 90.243424,236.108416 91.439877,234.945926 92.621356,233.768221 93.787668,232.575493 94.938622,231.367939 96.074029,230.145755 97.193704,228.909142 98.297463,227.658303 99.385126,226.393443 100.456513,225.114767 101.511451,223.822487 102.549766,222.516813 103.571288,221.197959 104.57585,219.866141 105.563287,218.521578 106.533438,217.164489 107.486143,215.795097 108.421247,214.413626 109.338597,213.020302 110.238043,211.615353 111.119436,210.19901 111.982633,208.771504 112.827493,207.333069 113.653877,205.883941 114.461649,204.424357 115.250678,202.954556 116.020835,201.474778 116.771992,199.985267 117.504028,198.486265 118.216822,196.978018 118.910257,195.460774 119.584221,193.934781 120.238602,192.400288 120.873294,190.857548 121.488192,189.306811 122.083196,187.748334 122.658209,186.18237 123.213136,184.609176 123.747886,183.02901 124.262372,181.442131 124.75651,179.848797 125.230218,178.249272 125.68342,176.643815 126.11604,175.03269 126.528008,173.416162 126.919257,171.794494 127.289723,170.167952 127.639344,168.536803 127.968064,166.901314 128.275829,165.261752 128.562588,163.618386 128.828295,161.971485 129.072905,160.321319 129.296379,158.668158 129.498681,157.012272 129.679776,155.353934 129.839637,153.693413 129.978235,152.030984 130.095549,150.366916 130.191559,148.701484 130.26625,147.03496 130.31961,145.367616 130.351629,143.699726 130.362303,142.031563"/>
<polygon id="0000023F34ED2C00" class="l0d0" points="-133.36297,-3.000667 133.36297,-3.000667 133.36297,3.000667 -133.36297,3.000667"/>
</g>
</svg>